# xmcd
#
# Track frame offsets: 
#        150
#        12680
#        22245
#        32130
#        41013
#        51538
#        63850
#        74178
#        84100
#        94365
#        104940
#        120893
#        131520
#        142893
#        153648
#        167108
#        178608
#        191778
#        202635
#        211605
#        222800
#        232833
#        245640
#        256423
#
# Disc length: 3597 seconds
#
# Revision: 2
# Processed by: cddbd v1.5.2PL0 Copyright (c) Steve Scherf et al.
# Submitted via: ExactAudioCopy v0.99pb5
#
DISCID=600e0b18
DTITLE=Sam Cooke - The Legend of Sam Cooke
DYEAR=1993
DGENRE=Soul
TTITLE0=You Send Me
TTITLE1=What A Wonderful World
TTITLE2=Steal Away
TTITLE3=Only Sixteen
TTITLE4=Love You Most Of All
TTITLE5=Win Your Love For Me
TTITLE6=Little Things You Do
TTITLE7=Stealing Kisses
TTITLE8=Summertime Part. 1
TTITLE9=Summertime Part. 2
TTITLE10=Tammy
TTITLE11=No One Can Ever Take Your Place
TTITLE12=Let's Go Steady Again
TTITLE13=Desire Me
TTITLE14=I Thank God
TTITLE15=Ol' Man River
TTITLE16=You Were Made For Me
TTITLE17=All Of My Life
TTITLE18=There, I've Said It Again
TTITLE19=Darling I Need You
TTITLE20=I'll Come Running Back To You
TTITLE21=I Don't Want To Cry
TTITLE22=Lovable
TTITLE23=Forever
EXTD=
EXTT0=
EXTT1=
EXTT2=
EXTT3=
EXTT4=
EXTT5=
EXTT6=
EXTT7=
EXTT8=
EXTT9=
EXTT10=
EXTT11=
EXTT12=
EXTT13=
EXTT14=
EXTT15=
EXTT16=
EXTT17=
EXTT18=
EXTT19=
EXTT20=
EXTT21=
EXTT22=
EXTT23=
PLAYORDER=
